<svg width="498" height="498" viewBox="0 0 498 498" fill="none" xmlns="http://www.w3.org/2000/svg">
<g clip-path="url(#clip0_93_5484)">
<path d="M448.1 396.896H415.113V397.145H448.1V396.896Z" fill="#EBEBEB"/>
<path d="M329.895 399.605H321.24V399.854H329.895V399.605Z" fill="#EBEBEB"/>
<path d="M414.117 387.653H395.004V387.902H414.117V387.653Z" fill="#EBEBEB"/>
<path d="M95.2678 389.326H52.2505V389.575H95.2678V389.326Z" fill="#EBEBEB"/>
<path d="M110.447 389.326H104.142V389.575H110.447V389.326Z" fill="#EBEBEB"/>
<path d="M224.249 393.53H130.944V393.779H224.249V393.53Z" fill="#EBEBEB"/>
<path d="M237.446 336.449H45.1187C43.6104 336.449 42.1638 335.849 41.0973 334.783C40.0307 333.716 39.4315 332.27 39.4315 330.761V60.4171C39.4447 58.9175 40.0497 57.4837 41.1148 56.4279C42.1799 55.3721 43.619 54.7797 45.1187 54.7798H237.446C238.193 54.7798 238.933 54.9269 239.623 55.2127C240.313 55.4985 240.94 55.9174 241.468 56.4455C241.996 56.9736 242.415 57.6006 242.701 58.2906C242.986 58.9806 243.133 59.7201 243.133 60.4669V330.761C243.133 331.508 242.986 332.248 242.701 332.938C242.415 333.628 241.996 334.255 241.468 334.783C240.94 335.311 240.313 335.73 239.623 336.016C238.933 336.301 238.193 336.449 237.446 336.449ZM45.1187 54.979C43.6772 54.9816 42.2955 55.5554 41.2763 56.5747C40.257 57.594 39.6832 58.9757 39.6805 60.4171V330.761C39.6832 332.203 40.257 333.585 41.2763 334.604C42.2955 335.623 43.6772 336.197 45.1187 336.2H237.446C238.888 336.197 240.269 335.623 241.289 334.604C242.308 333.585 242.882 332.203 242.884 330.761V60.4171C242.882 58.9757 242.308 57.594 241.289 56.5747C240.269 55.5554 238.888 54.9816 237.446 54.979H45.1187Z" fill="#EBEBEB"/>
<path d="M452.881 336.449H260.554C259.045 336.449 257.599 335.849 256.532 334.783C255.466 333.716 254.866 332.27 254.866 330.761V60.4171C254.88 58.9175 255.484 57.4837 256.55 56.4279C257.615 55.3721 259.054 54.7797 260.554 54.7798H452.881C454.389 54.7798 455.836 55.379 456.903 56.4455C457.969 57.5121 458.568 58.9586 458.568 60.4669V330.761C458.568 332.27 457.969 333.716 456.903 334.783C455.836 335.849 454.389 336.449 452.881 336.449ZM260.554 54.979C259.112 54.9816 257.73 55.5554 256.711 56.5747C255.692 57.594 255.118 58.9757 255.115 60.4171V330.761C255.118 332.203 255.692 333.585 256.711 334.604C257.73 335.623 259.112 336.197 260.554 336.2H452.881C454.323 336.197 455.704 335.623 456.724 334.604C457.743 333.585 458.317 332.203 458.319 330.761V60.4171C458.317 58.9757 457.743 57.594 456.724 56.5747C455.704 55.5554 454.323 54.9816 452.881 54.979H260.554Z" fill="#EBEBEB"/>
<path d="M498 380.87H0V381.119H498V380.87Z" fill="#EBEBEB"/>
<path d="M118.853 313.491C118.016 303.87 108.195 300.274 96.5521 301.29C84.9089 302.306 75.8751 307.555 76.6918 317.176L118.853 313.491Z" fill="#F0F0F0"/>
<path d="M96.1736 296.898C101.572 296.42 103.295 291.858 102.827 286.46C102.359 281.061 99.8389 276.868 94.4605 277.336C89.0821 277.804 87.3391 282.376 87.8072 287.774C88.2753 293.173 90.7753 297.366 96.1736 296.898Z" fill="#F0F0F0"/>
<path d="M338.74 108.564C338.834 109.632 338.61 110.704 338.095 111.644C337.58 112.584 336.798 113.351 335.847 113.846C334.897 114.342 333.821 114.544 332.755 114.428C331.689 114.312 330.682 113.882 329.861 113.193C329.039 112.504 328.441 111.587 328.141 110.558C327.841 109.529 327.853 108.434 328.175 107.412C328.498 106.389 329.116 105.486 329.953 104.815C330.789 104.144 331.805 103.737 332.873 103.644C334.303 103.52 335.724 103.968 336.824 104.89C337.924 105.813 338.613 107.134 338.74 108.564Z" fill="#F5F5F5"/>
<path d="M368.689 105.915C368.782 106.98 368.556 108.049 368.041 108.987C367.526 109.924 366.744 110.688 365.795 111.181C364.846 111.674 363.772 111.875 362.709 111.758C361.646 111.641 360.641 111.211 359.822 110.523C359.003 109.835 358.407 108.92 358.108 107.893C357.809 106.866 357.822 105.773 358.144 104.753C358.466 103.733 359.084 102.832 359.918 102.163C360.753 101.494 361.767 101.087 362.833 100.994C364.261 100.873 365.68 101.322 366.777 102.245C367.875 103.167 368.563 104.487 368.689 105.915Z" fill="#F5F5F5"/>
<path d="M398.649 103.295C398.743 104.363 398.519 105.435 398.004 106.375C397.489 107.315 396.707 108.082 395.757 108.577C394.806 109.073 393.73 109.275 392.664 109.159C391.599 109.043 390.591 108.613 389.77 107.924C388.949 107.235 388.35 106.318 388.05 105.289C387.75 104.26 387.762 103.165 388.085 102.143C388.407 101.12 389.026 100.217 389.862 99.546C390.698 98.8753 391.715 98.4677 392.782 98.3749C394.213 98.2505 395.634 98.6988 396.734 99.6213C397.834 100.544 398.522 101.865 398.649 103.295Z" fill="#F5F5F5"/>
<path d="M341.409 139.061C341.503 140.129 341.279 141.201 340.764 142.141C340.249 143.082 339.467 143.848 338.517 144.344C337.566 144.839 336.49 145.042 335.424 144.925C334.358 144.809 333.351 144.379 332.53 143.691C331.709 143.002 331.11 142.085 330.81 141.055C330.51 140.026 330.522 138.931 330.845 137.909C331.167 136.887 331.786 135.983 332.622 135.312C333.458 134.642 334.474 134.234 335.542 134.141C336.973 134.017 338.394 134.465 339.494 135.388C340.593 136.31 341.282 137.632 341.409 139.061Z" fill="#F5F5F5"/>
<path d="M371.358 136.452C371.451 137.517 371.225 138.587 370.71 139.524C370.195 140.461 369.414 141.225 368.465 141.718C367.515 142.212 366.441 142.412 365.378 142.295C364.315 142.178 363.31 141.748 362.491 141.06C361.673 140.372 361.076 139.457 360.777 138.43C360.479 137.403 360.491 136.31 360.813 135.29C361.136 134.27 361.753 133.369 362.588 132.7C363.422 132.031 364.436 131.624 365.502 131.532C366.21 131.47 366.922 131.548 367.6 131.762C368.277 131.976 368.905 132.322 369.449 132.779C369.993 133.236 370.442 133.795 370.769 134.425C371.097 135.056 371.297 135.744 371.358 136.452Z" fill="#F5F5F5"/>
<path d="M401.318 133.822C401.413 134.89 401.188 135.962 400.674 136.902C400.159 137.843 399.377 138.609 398.426 139.105C397.475 139.6 396.399 139.803 395.334 139.686C394.268 139.57 393.261 139.14 392.439 138.452C391.618 137.763 391.019 136.846 390.719 135.816C390.419 134.787 390.431 133.692 390.754 132.67C391.076 131.648 391.695 130.744 392.531 130.073C393.368 129.403 394.384 128.995 395.452 128.902C396.882 128.778 398.303 129.226 399.403 130.149C400.503 131.071 401.192 132.392 401.318 133.822Z" fill="#F5F5F5"/>
<path d="M344.078 169.599C344.171 170.664 343.945 171.734 343.43 172.671C342.915 173.608 342.133 174.372 341.184 174.865C340.235 175.359 339.161 175.559 338.098 175.442C337.035 175.325 336.03 174.895 335.211 174.207C334.392 173.519 333.796 172.604 333.497 171.577C333.198 170.55 333.211 169.457 333.533 168.437C333.855 167.417 334.473 166.516 335.307 165.847C336.142 165.178 337.156 164.771 338.222 164.679C338.93 164.616 339.643 164.693 340.321 164.907C340.999 165.12 341.628 165.465 342.172 165.923C342.716 166.38 343.164 166.94 343.492 167.571C343.819 168.202 344.018 168.891 344.078 169.599Z" fill="#F5F5F5"/>
<path d="M374.038 166.969C374.132 168.037 373.908 169.109 373.393 170.049C372.878 170.99 372.096 171.756 371.146 172.252C370.195 172.747 369.119 172.95 368.053 172.833C366.988 172.717 365.98 172.287 365.159 171.598C364.338 170.91 363.739 169.993 363.439 168.963C363.139 167.934 363.151 166.839 363.474 165.817C363.796 164.795 364.415 163.891 365.251 163.22C366.087 162.55 367.104 162.142 368.171 162.049C369.602 161.925 371.023 162.373 372.123 163.296C373.223 164.218 373.911 165.539 374.038 166.969Z" fill="#F5F5F5"/>
<path d="M403.988 164.34C404.082 165.408 403.858 166.48 403.343 167.42C402.828 168.36 402.046 169.127 401.095 169.622C400.145 170.118 399.068 170.32 398.003 170.204C396.937 170.088 395.93 169.658 395.109 168.969C394.287 168.28 393.689 167.363 393.389 166.334C393.089 165.305 393.101 164.21 393.423 163.188C393.746 162.165 394.364 161.262 395.201 160.591C396.037 159.92 397.053 159.513 398.121 159.42C399.551 159.295 400.972 159.744 402.072 160.666C403.172 161.589 403.861 162.91 403.988 164.34Z" fill="#F5F5F5"/>
<path d="M397.514 166.113L335.981 171.491L390.542 105.197L334.656 110.088C334.5 110.103 334.343 110.086 334.193 110.04C334.044 109.993 333.905 109.917 333.785 109.816C333.665 109.714 333.567 109.59 333.496 109.451C333.425 109.311 333.383 109.158 333.371 109.002C333.344 108.689 333.441 108.378 333.643 108.137C333.845 107.896 334.134 107.745 334.447 107.717L395.99 102.339L341.419 168.633L397.325 163.742C397.64 163.717 397.952 163.817 398.194 164.02C398.436 164.223 398.589 164.513 398.619 164.828C398.632 164.985 398.613 165.143 398.564 165.293C398.515 165.442 398.436 165.581 398.334 165.7C398.231 165.82 398.106 165.918 397.965 165.988C397.824 166.059 397.671 166.101 397.514 166.113Z" fill="#E6E6E6"/>
<path d="M398.46 284.468C398.365 284.178 398.187 283.922 397.948 283.732C397.709 283.543 397.419 283.428 397.115 283.402C394.439 283.279 391.907 282.16 390.014 280.265C387.553 277.785 386.109 274.03 385.87 269.567C385.847 269.165 385.672 268.786 385.379 268.509C385.087 268.231 384.7 268.075 384.297 268.073C384.079 268.075 383.863 268.12 383.663 268.206C383.463 268.293 383.283 268.419 383.133 268.578C382.983 268.736 382.867 268.923 382.791 269.127C382.716 269.331 382.682 269.549 382.693 269.767C382.972 275.006 384.745 279.488 387.763 282.506C390.126 284.873 393.261 286.311 396.597 286.559H396.826C397.088 286.579 397.351 286.534 397.591 286.428C397.831 286.322 398.042 286.158 398.203 285.951C398.365 285.744 398.473 285.5 398.518 285.242C398.562 284.983 398.542 284.717 398.46 284.468Z" fill="#F0F0F0"/>
<path d="M395.273 303.581C382.076 302.426 372.554 293.432 369.546 279.388C369.498 279.177 369.493 278.959 369.532 278.746C369.571 278.533 369.652 278.331 369.771 278.15C369.89 277.97 370.045 277.815 370.225 277.696C370.405 277.576 370.608 277.495 370.821 277.456C371.224 277.384 371.639 277.47 371.98 277.697C372.321 277.923 372.562 278.272 372.653 278.671C375.353 291.29 383.819 299.378 395.561 300.404C408.43 301.529 422.244 293.063 424.724 271.729C424.767 271.313 424.972 270.93 425.294 270.664C425.617 270.397 426.031 270.268 426.447 270.305C426.658 270.322 426.864 270.381 427.051 270.48C427.239 270.578 427.405 270.712 427.54 270.876C427.674 271.039 427.775 271.228 427.835 271.431C427.896 271.634 427.915 271.847 427.892 272.058C425.511 292.177 412.284 305.065 395.273 303.581Z" fill="#F0F0F0"/>
<path d="M370.372 265.394C370.161 265.377 369.956 265.317 369.768 265.219C369.581 265.121 369.415 264.986 369.28 264.823C369.145 264.659 369.045 264.471 368.984 264.268C368.924 264.065 368.905 263.852 368.928 263.641C371.299 243.522 384.526 230.624 401.527 232.118C416.467 233.423 426.477 244.578 428.041 261.38C428.057 261.591 428.031 261.803 427.965 262.004C427.898 262.205 427.792 262.391 427.653 262.55C427.514 262.71 427.344 262.84 427.155 262.933C426.965 263.026 426.758 263.081 426.547 263.093C426.131 263.113 425.724 262.97 425.412 262.695C425.1 262.42 424.907 262.034 424.874 261.619C423.429 246.48 414.495 236.45 401.258 235.295C388.44 234.17 374.566 242.626 372.096 263.94C372.078 264.149 372.019 264.352 371.923 264.538C371.827 264.724 371.695 264.889 371.535 265.024C371.375 265.159 371.19 265.261 370.991 265.325C370.791 265.388 370.581 265.412 370.372 265.394Z" fill="#F0F0F0"/>
<path d="M395.92 295.045C393.554 294.855 391.235 294.276 389.057 293.332C388.854 293.243 388.672 293.113 388.522 292.95C388.372 292.787 388.257 292.594 388.185 292.384C388.113 292.175 388.085 291.952 388.103 291.732C388.121 291.511 388.185 291.296 388.29 291.101C388.477 290.758 388.784 290.498 389.152 290.369C389.52 290.24 389.923 290.252 390.282 290.404C392.359 291.296 394.579 291.808 396.836 291.918C406.587 292.475 416.886 285.563 417.902 268.87C418.519 258.581 414.993 250.275 408.42 246.301C408.079 246.095 407.828 245.769 407.716 245.388C407.604 245.006 407.638 244.596 407.812 244.239C407.911 244.041 408.05 243.866 408.219 243.724C408.389 243.583 408.586 243.477 408.798 243.415C409.01 243.352 409.232 243.334 409.452 243.361C409.671 243.388 409.882 243.46 410.073 243.572C417.692 248.173 421.776 257.516 421.079 269.059C420.083 285.155 410.063 295.872 396.647 295.105L395.92 295.045Z" fill="#F0F0F0"/>
<path d="M381.737 285.115C381.553 285.239 381.347 285.324 381.129 285.365C380.911 285.405 380.688 285.401 380.472 285.351C380.256 285.302 380.053 285.208 379.874 285.077C379.696 284.945 379.547 284.779 379.436 284.587C376.484 279.098 375.186 272.871 375.701 266.659C376.637 251.251 385.87 240.763 398.41 240.584C398.631 240.579 398.85 240.621 399.054 240.705C399.258 240.789 399.443 240.915 399.596 241.074C399.75 241.233 399.869 241.422 399.946 241.629C400.022 241.836 400.056 242.056 400.043 242.277C400.018 242.675 399.845 243.05 399.557 243.327C399.27 243.603 398.889 243.762 398.49 243.771C389.187 243.95 379.844 250.982 378.888 266.848C378.405 272.455 379.561 278.081 382.215 283.043C382.415 283.388 382.476 283.795 382.388 284.183C382.299 284.571 382.066 284.911 381.737 285.135V285.115Z" fill="#F0F0F0"/>
<path d="M403.509 283.86C403.358 283.506 403.341 283.109 403.46 282.743C403.579 282.377 403.826 282.066 404.157 281.868C408.35 279.348 410.92 274.059 410.959 267.675C410.959 262.566 409.515 258.243 406.786 255.504C405.726 254.454 404.463 253.631 403.074 253.087C401.685 252.542 400.2 252.287 398.709 252.337C393.798 252.337 389.814 255.036 387.613 259.777C387.444 260.137 387.144 260.42 386.775 260.57C386.406 260.719 385.994 260.724 385.621 260.584C385.413 260.507 385.224 260.387 385.064 260.234C384.905 260.08 384.779 259.894 384.695 259.689C384.611 259.484 384.57 259.264 384.575 259.043C384.58 258.821 384.631 258.603 384.725 258.402C387.454 252.596 392.563 249.159 398.669 249.149C400.581 249.1 402.484 249.438 404.262 250.144C406.041 250.849 407.658 251.906 409.017 253.253C412.354 256.6 414.167 261.729 414.127 267.705C414.067 275.225 410.9 281.539 405.74 284.637C405.545 284.744 405.33 284.808 405.108 284.827C404.886 284.845 404.663 284.816 404.453 284.743C404.242 284.67 404.05 284.554 403.887 284.402C403.725 284.249 403.596 284.065 403.509 283.86Z" fill="#F0F0F0"/>
<path d="M392.035 272.097C391.823 272.184 391.594 272.224 391.364 272.214C391.135 272.203 390.91 272.144 390.706 272.039C390.501 271.934 390.322 271.786 390.18 271.605C390.039 271.424 389.937 271.215 389.884 270.992C389.775 270.563 389.695 270.115 389.625 269.657C388.719 263.681 391.926 258.512 397.075 257.585C398.274 257.325 399.518 257.348 400.706 257.655C401.894 257.961 402.994 258.541 403.918 259.348C404.091 259.503 404.227 259.694 404.317 259.908C404.406 260.122 404.446 260.353 404.433 260.585C404.421 260.816 404.356 261.042 404.245 261.245C404.133 261.449 403.977 261.624 403.788 261.759L403.689 261.828C403.39 262.036 403.029 262.135 402.666 262.107C402.303 262.08 401.961 261.929 401.697 261.679C401.138 261.207 400.478 260.872 399.767 260.699C399.057 260.526 398.316 260.521 397.603 260.683C393.679 261.39 392.185 265.474 392.743 269.139C392.802 269.498 392.862 269.846 392.952 270.135C393.048 270.51 393.005 270.907 392.831 271.253C392.657 271.6 392.364 271.871 392.006 272.018L392.035 272.097Z" fill="#F0F0F0"/>
<path d="M397.304 278.233C397.053 278.208 396.812 278.12 396.605 277.976C396.397 277.833 396.23 277.639 396.118 277.412C396.006 277.186 395.954 276.935 395.967 276.683C395.979 276.431 396.056 276.186 396.189 275.972L396.328 275.753C396.471 275.524 396.674 275.34 396.915 275.219C397.155 275.097 397.424 275.044 397.693 275.066C398.193 275.094 398.694 275.064 399.187 274.976C402.613 274.358 404.167 271.171 404.167 267.924C404.157 267.534 404.289 267.154 404.538 266.853C404.787 266.553 405.136 266.353 405.521 266.291C405.742 266.257 405.968 266.27 406.184 266.329C406.399 266.388 406.6 266.492 406.773 266.634C406.946 266.776 407.087 266.953 407.187 267.153C407.287 267.353 407.344 267.571 407.354 267.795C407.444 272.994 404.366 277.287 399.755 278.113C398.947 278.263 398.123 278.303 397.304 278.233Z" fill="#F0F0F0"/>
<path d="M398.012 272.346C397.207 272.279 396.444 271.961 395.83 271.437C395.215 270.914 394.78 270.211 394.585 269.428C394.529 269.207 394.527 268.976 394.578 268.754C394.629 268.531 394.732 268.324 394.879 268.15C395.026 267.976 395.213 267.839 395.423 267.751C395.634 267.663 395.862 267.627 396.089 267.645H396.458C396.737 267.674 397.001 267.784 397.219 267.961C397.436 268.138 397.597 268.374 397.683 268.641C397.718 268.78 397.795 268.905 397.904 268.997C398.013 269.09 398.148 269.147 398.291 269.159C399.057 269.229 399.187 268.163 399.207 267.904C399.253 267.516 399.18 267.124 398.998 266.779C398.723 266.446 398.581 266.024 398.599 265.593C398.625 265.277 398.744 264.975 398.942 264.727C399.139 264.479 399.407 264.295 399.71 264.2C400.013 264.105 400.337 264.102 400.641 264.192C400.946 264.283 401.216 264.462 401.418 264.707C402.195 265.689 402.553 266.938 402.414 268.183C402.155 270.802 400.312 272.545 398.012 272.346Z" fill="#F0F0F0"/>
<path d="M368.052 236.699C367.844 236.682 367.641 236.623 367.455 236.527C367.27 236.431 367.105 236.299 366.971 236.139C366.837 235.978 366.735 235.793 366.673 235.594C366.611 235.394 366.589 235.185 366.608 234.976L367.813 221.162L381.627 222.377C381.836 222.395 382.038 222.453 382.224 222.549C382.409 222.646 382.574 222.778 382.708 222.938C382.843 223.098 382.944 223.283 383.006 223.483C383.068 223.682 383.091 223.892 383.072 224.1C383.054 224.309 382.995 224.512 382.899 224.698C382.803 224.884 382.671 225.049 382.511 225.184C382.351 225.319 382.166 225.421 381.967 225.485C381.767 225.548 381.557 225.572 381.348 225.554L370.711 224.618L369.785 235.255C369.766 235.464 369.706 235.667 369.609 235.852C369.512 236.038 369.379 236.203 369.218 236.337C369.057 236.471 368.871 236.572 368.671 236.634C368.471 236.696 368.261 236.719 368.052 236.699Z" fill="#F0F0F0"/>
<path d="M433.718 242.446C433.51 242.429 433.307 242.37 433.121 242.274C432.936 242.178 432.771 242.046 432.637 241.886C432.503 241.725 432.402 241.54 432.339 241.341C432.277 241.141 432.255 240.931 432.274 240.723L433.2 230.086L422.563 229.16C422.354 229.141 422.151 229.081 421.966 228.984C421.78 228.887 421.615 228.754 421.481 228.593C421.347 228.432 421.246 228.246 421.184 228.046C421.122 227.846 421.099 227.635 421.119 227.427C421.136 227.218 421.195 227.016 421.291 226.83C421.387 226.645 421.519 226.48 421.679 226.346C421.84 226.212 422.025 226.11 422.224 226.048C422.424 225.986 422.634 225.963 422.842 225.982L436.656 227.188L435.451 241.032C435.406 241.448 435.199 241.83 434.874 242.094C434.55 242.359 434.135 242.485 433.718 242.446Z" fill="#F0F0F0"/>
<path d="M428.828 316.728L415.013 315.523C414.805 315.504 414.602 315.444 414.416 315.347C414.23 315.25 414.066 315.117 413.932 314.956C413.798 314.795 413.696 314.609 413.634 314.409C413.572 314.209 413.55 313.999 413.569 313.79C413.587 313.582 413.645 313.379 413.741 313.193C413.838 313.008 413.97 312.843 414.13 312.709C414.29 312.575 414.475 312.473 414.675 312.411C414.874 312.349 415.084 312.327 415.292 312.346L425.929 313.272L426.856 302.645C426.873 302.435 426.932 302.231 427.029 302.044C427.126 301.858 427.258 301.692 427.419 301.557C427.581 301.421 427.767 301.32 427.967 301.257C428.168 301.194 428.379 301.171 428.589 301.19C428.797 301.208 429 301.267 429.185 301.363C429.371 301.459 429.535 301.591 429.67 301.751C429.804 301.911 429.905 302.097 429.967 302.296C430.03 302.496 430.052 302.705 430.033 302.914L428.828 316.728Z" fill="#F0F0F0"/>
<path d="M373.799 311.887L359.984 310.672L361.189 296.868C361.23 296.446 361.434 296.058 361.758 295.786C362.082 295.514 362.501 295.38 362.922 295.413C363.131 295.432 363.334 295.492 363.52 295.589C363.705 295.687 363.87 295.819 364.004 295.98C364.138 296.141 364.239 296.327 364.301 296.527C364.364 296.727 364.386 296.938 364.367 297.146L363.44 307.764L374.068 308.7C374.276 308.718 374.479 308.776 374.665 308.872C374.851 308.968 375.017 309.1 375.152 309.26C375.287 309.42 375.389 309.605 375.452 309.805C375.516 310.004 375.54 310.215 375.522 310.423C375.486 310.845 375.285 311.236 374.962 311.511C374.639 311.785 374.221 311.92 373.799 311.887Z" fill="#F0F0F0"/>
<path d="M74.4308 281.997C74.1713 282.017 73.9145 281.934 73.7153 281.766C73.5161 281.599 73.3904 281.36 73.3651 281.101L72.6281 272.615L81.114 271.868C81.3735 271.849 81.6304 271.931 81.8296 272.099C82.0287 272.267 82.1544 272.505 82.1797 272.764C82.1965 273.022 82.1123 273.277 81.9451 273.474C81.7778 273.671 81.5405 273.795 81.2833 273.82L74.7496 274.398L75.3173 280.932C75.3369 281.19 75.2553 281.445 75.0899 281.644C74.9244 281.843 74.6881 281.97 74.4308 281.997Z" fill="#E0E0E0"/>
<path d="M114.809 278.462C114.551 278.481 114.296 278.4 114.097 278.234C113.898 278.069 113.771 277.832 113.743 277.575L113.176 271.031L106.632 271.609C106.372 271.629 106.116 271.546 105.916 271.378C105.717 271.211 105.592 270.972 105.566 270.713C105.547 270.453 105.63 270.196 105.797 269.997C105.965 269.798 106.204 269.672 106.463 269.647L114.949 268.91L115.696 277.396C115.715 277.654 115.634 277.909 115.468 278.108C115.303 278.307 115.066 278.434 114.809 278.462Z" fill="#E0E0E0"/>
<path d="M118.992 315.025L110.496 315.772C110.237 315.791 109.98 315.708 109.781 315.541C109.582 315.373 109.456 315.134 109.431 314.875C109.411 314.616 109.494 314.359 109.662 314.16C109.829 313.961 110.068 313.835 110.327 313.81L116.861 313.242L116.293 306.708C116.273 306.45 116.355 306.195 116.52 305.996C116.686 305.797 116.922 305.67 117.179 305.643C117.437 305.623 117.693 305.704 117.892 305.87C118.091 306.035 118.217 306.272 118.245 306.529L118.992 315.025Z" fill="#E0E0E0"/>
<path d="M85.1483 317.983L76.6923 318.72L75.9453 310.224C75.9286 309.966 76.0127 309.712 76.18 309.515C76.3472 309.318 76.5845 309.194 76.8417 309.168C77.098 309.152 77.351 309.234 77.5477 309.399C77.7445 309.565 77.8698 309.799 77.8975 310.055L78.4751 316.599L85.0089 316.021C85.2684 316.001 85.5253 316.084 85.7245 316.252C85.9236 316.419 86.0493 316.658 86.0746 316.917C86.0841 317.048 86.0676 317.18 86.0262 317.304C85.9847 317.429 85.919 317.544 85.833 317.643C85.7469 317.742 85.6421 317.823 85.5246 317.881C85.4071 317.94 85.2792 317.974 85.1483 317.983Z" fill="#E0E0E0"/>
<path d="M114.122 140.436L81.6722 143.225L81.0049 135.625C80.9561 131.998 82.2806 128.487 84.7125 125.796C87.1445 123.105 90.5041 121.433 94.1175 121.115C97.7308 120.797 101.331 121.858 104.195 124.084C107.059 126.309 108.976 129.536 109.56 133.115L109.939 137.538L114.63 137.129L114.241 132.707C114.023 130.213 113.315 127.786 112.159 125.565C111.003 123.344 109.42 121.373 107.502 119.764C105.584 118.154 103.368 116.939 100.98 116.186C98.5916 115.433 96.0787 115.158 93.5844 115.377C88.5469 115.818 83.891 118.242 80.641 122.116C79.0317 124.034 77.816 126.25 77.0633 128.638C76.3105 131.027 76.0355 133.539 76.254 136.034L76.9213 143.683C75.0736 144.045 73.4248 145.077 72.2922 146.581C71.1595 148.085 70.6231 149.955 70.7859 151.83L73.1066 178.364C73.1894 179.365 73.4692 180.34 73.9299 181.233C74.3906 182.126 75.0232 182.92 75.7914 183.567C76.5595 184.215 77.4481 184.705 78.406 185.008C79.3639 185.312 80.3724 185.423 81.3734 185.336L117.757 182.158C118.759 182.076 119.734 181.796 120.627 181.335C121.52 180.874 122.313 180.242 122.961 179.474C123.609 178.706 124.099 177.817 124.402 176.859C124.705 175.901 124.817 174.893 124.729 173.892L122.409 147.358C122.32 146.359 122.035 145.388 121.57 144.499C121.105 143.61 120.47 142.822 119.7 142.179C118.931 141.536 118.042 141.051 117.085 140.752C116.127 140.453 115.121 140.346 114.122 140.436ZM100.317 160.884L101.114 170.017C101.168 170.385 101.146 170.759 101.05 171.118C100.953 171.477 100.785 171.812 100.554 172.104C100.324 172.395 100.037 172.636 99.7096 172.813C99.3827 172.989 99.0232 173.097 98.6531 173.13C98.2831 173.162 97.9103 173.119 97.5575 173.002C97.2048 172.886 96.8796 172.699 96.6018 172.452C96.324 172.205 96.0995 171.905 95.942 171.568C95.7845 171.232 95.6974 170.867 95.6859 170.495L94.8891 161.352C94.0675 160.847 93.426 160.096 93.0559 159.206C92.6859 158.316 92.6062 157.331 92.8283 156.393C93.0503 155.455 93.5627 154.61 94.2925 153.98C95.0224 153.35 95.9324 152.966 96.8931 152.883C97.8538 152.8 98.8161 153.023 99.643 153.519C100.47 154.014 101.119 154.759 101.499 155.645C101.878 156.532 101.968 157.515 101.756 158.456C101.544 159.396 101.04 160.246 100.317 160.884Z" fill="#EBEBEB"/>
<path d="M169.758 155.764L166.481 150.396C164.83 150.631 163.153 150.631 161.501 150.396L158.214 155.744L157.587 155.575C155.457 155.014 153.413 154.166 151.511 153.055L150.954 152.737L152.338 146.92C152.365 146.807 152.414 146.701 152.482 146.607C152.55 146.513 152.637 146.434 152.736 146.374C152.835 146.313 152.945 146.273 153.06 146.256C153.174 146.239 153.291 146.244 153.404 146.272C153.629 146.327 153.824 146.469 153.946 146.666C154.067 146.864 154.105 147.102 154.051 147.328L152.956 151.86C154.371 152.631 155.863 153.252 157.408 153.713L160.615 148.474L161.202 148.573C163.063 148.872 164.959 148.872 166.82 148.573L167.398 148.474L170.605 153.713C172.151 153.256 173.643 152.635 175.057 151.86L173.632 145.884L174.111 145.535C175.408 144.6 176.571 143.49 177.567 142.239C177.705 142.058 177.908 141.939 178.133 141.905C178.358 141.872 178.587 141.927 178.772 142.059C178.869 142.127 178.951 142.213 179.013 142.313C179.076 142.413 179.117 142.525 179.135 142.641C179.152 142.758 179.146 142.877 179.116 142.991C179.086 143.105 179.034 143.211 178.961 143.304C177.982 144.54 176.855 145.651 175.605 146.611L177.069 152.717L176.501 153.035C174.602 154.145 172.561 154.992 170.435 155.555L169.758 155.764ZM149.619 144.071C149.35 143.763 149.081 143.434 148.822 143.075L142.717 144.539L142.388 143.982C141.285 142.076 140.438 140.033 139.868 137.906L139.709 137.279L145.057 133.992C144.822 132.34 144.822 130.663 145.057 129.012L139.709 125.735L139.868 125.098C140.438 122.974 141.285 120.934 142.388 119.032L142.717 118.464L148.822 119.928C149.842 118.594 151.034 117.402 152.368 116.383L151.262 111.761C151.208 111.535 151.246 111.297 151.368 111.099C151.489 110.901 151.684 110.76 151.91 110.705C152.021 110.679 152.136 110.674 152.249 110.693C152.362 110.711 152.47 110.751 152.567 110.811C152.665 110.871 152.749 110.95 152.816 111.043C152.882 111.136 152.93 111.241 152.956 111.353L154.34 117.11L153.862 117.448C152.327 118.552 150.982 119.898 149.878 121.432L149.529 121.91L143.553 120.486C142.779 121.9 142.158 123.392 141.701 124.938L146.93 128.145L146.84 128.723C146.507 130.581 146.507 132.483 146.84 134.34L146.93 134.928L141.701 138.135C142.16 139.677 142.781 141.166 143.553 142.577L149.529 141.153L149.878 141.631C150.187 142.083 150.52 142.518 150.874 142.936C151.027 143.097 151.113 143.311 151.113 143.534C151.113 143.756 151.027 143.97 150.874 144.131C150.789 144.212 150.688 144.275 150.578 144.317C150.468 144.358 150.351 144.376 150.234 144.371C150.116 144.365 150.001 144.336 149.896 144.284C149.79 144.233 149.696 144.16 149.619 144.071ZM185.216 144.559L182.965 144.022C182.739 143.967 182.544 143.826 182.423 143.628C182.302 143.43 182.264 143.192 182.318 142.966C182.372 142.74 182.514 142.545 182.712 142.424C182.91 142.302 183.148 142.264 183.373 142.318L184.369 142.547C185.139 141.136 185.757 139.647 186.212 138.105L180.983 134.898L181.083 134.311C181.415 132.453 181.415 130.551 181.083 128.693L180.983 128.115L186.212 124.908C185.758 123.363 185.141 121.87 184.369 120.456L178.393 121.88L178.055 121.402C176.948 119.87 175.603 118.525 174.071 117.418L173.593 117.08L175.017 111.104C173.603 110.332 172.11 109.715 170.565 109.261L167.328 114.54L166.75 114.44C164.89 114.141 162.993 114.141 161.133 114.44L160.545 114.54L157.368 109.281L156.77 109.46C156.557 109.53 156.326 109.514 156.125 109.416C155.924 109.317 155.769 109.144 155.695 108.932C155.653 108.823 155.634 108.707 155.639 108.591C155.643 108.474 155.671 108.36 155.72 108.254C155.769 108.148 155.839 108.053 155.925 107.975C156.011 107.896 156.112 107.836 156.222 107.797C156.661 107.658 157.109 107.528 157.547 107.409L158.175 107.239L161.461 112.598C163.112 112.352 164.79 112.352 166.441 112.598L169.718 107.239L170.356 107.409C172.48 107.976 174.52 108.823 176.421 109.928L176.989 110.257L175.525 116.363C176.861 117.38 178.054 118.572 179.071 119.908L185.176 118.444L185.505 119.012C186.612 120.912 187.459 122.952 188.025 125.078L188.194 125.715L182.836 128.992C183.084 130.643 183.084 132.321 182.836 133.972L188.194 137.259L188.025 137.886C187.459 140.015 186.612 142.058 185.505 143.962L185.216 144.559ZM163.722 140.038C161.552 139.952 159.494 139.051 157.958 137.515C156.422 135.979 155.522 133.921 155.436 131.751C155.376 129.616 156.118 127.537 157.516 125.922C158.913 124.307 160.864 123.274 162.985 123.026C163.11 123.01 163.236 123.021 163.356 123.058C163.476 123.095 163.586 123.157 163.68 123.24C163.775 123.323 163.85 123.425 163.902 123.539C163.954 123.653 163.981 123.777 163.981 123.902C163.98 124.114 163.902 124.318 163.76 124.476C163.619 124.634 163.425 124.735 163.214 124.759C161.738 124.927 160.359 125.575 159.287 126.604C158.215 127.632 157.51 128.984 157.281 130.452C157.052 131.92 157.311 133.422 158.019 134.728C158.726 136.035 159.843 137.072 161.197 137.682C162.552 138.292 164.069 138.441 165.516 138.105C166.963 137.769 168.26 136.968 169.207 135.824C170.155 134.679 170.7 133.256 170.76 131.771C170.82 130.287 170.391 128.824 169.539 127.607C169.416 127.435 169.362 127.223 169.388 127.013C169.414 126.802 169.517 126.61 169.678 126.472C169.771 126.389 169.881 126.328 169.999 126.291C170.118 126.254 170.243 126.242 170.367 126.257C170.49 126.272 170.609 126.314 170.715 126.378C170.821 126.443 170.913 126.529 170.983 126.631C171.889 127.928 172.417 129.45 172.507 131.029C172.597 132.608 172.247 134.181 171.494 135.572C170.742 136.963 169.618 138.117 168.247 138.906C166.876 139.694 165.313 140.086 163.732 140.038H163.722Z" fill="#F0F0F0"/>
<path d="M107.876 228.672L105.755 225.216C104.682 225.375 103.591 225.375 102.518 225.216L100.397 228.672L99.9882 228.562C98.6132 228.199 97.2933 227.653 96.0639 226.939L95.7054 226.73L96.6018 222.965C96.6372 222.82 96.7281 222.695 96.8548 222.617C96.9815 222.539 97.1338 222.513 97.279 222.546C97.3517 222.564 97.4202 222.596 97.4806 222.64C97.541 222.684 97.5921 222.739 97.631 222.803C97.6698 222.867 97.6957 222.938 97.7071 223.012C97.7185 223.086 97.7152 223.161 97.6974 223.234L97.0002 226.162C97.914 226.662 98.879 227.063 99.8786 227.357L101.95 223.981L102.319 224.04C103.522 224.239 104.751 224.239 105.954 224.04L106.323 223.981L108.404 227.357C109.399 227.057 110.36 226.656 111.273 226.162L110.357 222.317L110.665 222.088C111.503 221.487 112.253 220.773 112.896 219.967C112.984 219.848 113.115 219.769 113.26 219.747C113.406 219.724 113.554 219.76 113.673 219.847C113.734 219.891 113.786 219.946 113.826 220.01C113.866 220.073 113.892 220.144 113.904 220.219C113.916 220.293 113.914 220.368 113.896 220.441C113.879 220.514 113.847 220.583 113.803 220.644C113.168 221.443 112.439 222.162 111.631 222.785L112.627 226.769L112.259 226.979C111.03 227.695 109.71 228.241 108.335 228.602L107.876 228.672ZM94.8687 221.112L94.3508 220.485L90.3668 221.421L90.1576 221.062C89.456 219.828 88.9233 218.504 88.574 217.128L88.4644 216.72L91.9206 214.598C91.7612 213.525 91.7612 212.434 91.9206 211.361L88.4644 209.24L88.574 208.831C88.935 207.456 89.4812 206.136 90.1975 204.907L90.4066 204.539L94.3906 205.535C95.0313 204.663 95.7773 203.873 96.6117 203.184L95.9046 200.196C95.8869 200.124 95.8837 200.049 95.8952 199.976C95.9067 199.903 95.9327 199.833 95.9716 199.77C96.0106 199.707 96.0617 199.652 96.122 199.609C96.1823 199.566 96.2506 199.535 96.3229 199.519C96.4681 199.486 96.6204 199.511 96.7471 199.589C96.8738 199.668 96.9647 199.792 97.0002 199.937L97.8966 203.652L97.5778 203.881C96.5908 204.589 95.7262 205.454 95.0181 206.441L94.789 206.75L90.9445 205.833C90.4499 206.747 90.0494 207.708 89.7493 208.702L93.1257 210.774L93.066 211.152C92.9633 211.751 92.91 212.357 92.9066 212.965C92.9099 213.576 92.9632 214.185 93.066 214.787L93.1257 215.156L89.7493 217.228C90.0475 218.226 90.4481 219.19 90.9445 220.106L94.789 219.18L95.0181 219.489C95.2239 219.784 95.4467 220.066 95.6854 220.335C95.7835 220.439 95.8382 220.576 95.8382 220.719C95.8382 220.861 95.7835 220.999 95.6854 221.102C95.6339 221.159 95.5713 221.204 95.5014 221.236C95.4315 221.267 95.3559 221.284 95.2793 221.285C95.2026 221.286 95.1266 221.271 95.056 221.241C94.9854 221.212 94.9216 221.168 94.8687 221.112ZM117.866 221.421L116.412 221.082C116.34 221.065 116.271 221.033 116.211 220.989C116.15 220.945 116.099 220.889 116.06 220.825C116.021 220.762 115.996 220.691 115.984 220.617C115.973 220.543 115.976 220.468 115.994 220.395C116.01 220.323 116.041 220.254 116.084 220.194C116.127 220.134 116.182 220.083 116.245 220.044C116.308 220.005 116.378 219.979 116.451 219.967C116.524 219.956 116.599 219.959 116.671 219.977L117.299 220.126C117.799 219.212 118.2 218.247 118.494 217.248L115.117 215.176L115.177 214.807C115.28 214.205 115.333 213.596 115.337 212.985C115.333 212.377 115.28 211.771 115.177 211.172L115.117 210.794L118.494 208.722C118.198 207.726 117.797 206.765 117.299 205.853L113.454 206.77L113.225 206.461C112.517 205.474 111.652 204.609 110.665 203.901L110.357 203.672L111.273 199.828C110.362 199.329 109.4 198.928 108.404 198.632L106.323 202.009L105.954 201.949C104.751 201.75 103.522 201.75 102.319 201.949L101.95 202.009L99.8786 198.632L99.4902 198.752C99.3514 198.796 99.2008 198.785 99.0706 198.72C98.9403 198.654 98.8406 198.541 98.793 198.403C98.7661 198.333 98.7537 198.259 98.7563 198.184C98.7589 198.109 98.7765 198.036 98.8081 197.968C98.8397 197.9 98.8846 197.839 98.9402 197.789C98.9958 197.739 99.0609 197.701 99.1316 197.676L99.9882 197.417L100.397 197.318L102.518 200.774C103.591 200.614 104.682 200.614 105.755 200.774L107.876 197.318L108.285 197.417C109.659 197.786 110.979 198.335 112.209 199.051L112.578 199.26L111.582 203.244C112.439 203.907 113.209 204.677 113.872 205.535L117.856 204.539L118.066 204.907C118.782 206.136 119.328 207.456 119.689 208.831L119.799 209.24L116.342 211.361C116.502 212.434 116.502 213.525 116.342 214.598L119.799 216.72L119.689 217.128C119.326 218.503 118.78 219.823 118.066 221.052L117.866 221.421ZM103.982 218.503C102.629 218.41 101.357 217.822 100.41 216.851C99.4626 215.879 98.9062 214.593 98.8471 213.238C98.788 211.883 99.2301 210.553 100.089 209.503C100.948 208.454 102.164 207.757 103.504 207.547C103.584 207.538 103.665 207.547 103.741 207.571C103.818 207.596 103.888 207.636 103.948 207.69C104.008 207.743 104.056 207.809 104.09 207.882C104.123 207.955 104.141 208.034 104.141 208.114C104.142 208.252 104.092 208.386 104 208.489C103.908 208.592 103.781 208.657 103.643 208.672C102.803 208.768 102.009 209.105 101.356 209.643C100.703 210.18 100.22 210.895 99.9643 211.701C99.7086 212.507 99.6915 213.37 99.9151 214.185C100.139 215.001 100.594 215.734 101.225 216.297C101.856 216.859 102.636 217.228 103.472 217.357C104.307 217.486 105.163 217.371 105.934 217.025C106.706 216.679 107.361 216.117 107.82 215.408C108.28 214.698 108.524 213.87 108.524 213.025C108.526 212.125 108.247 211.248 107.727 210.515C107.651 210.401 107.618 210.265 107.635 210.129C107.651 209.994 107.716 209.869 107.817 209.778C107.877 209.724 107.948 209.683 108.024 209.659C108.101 209.634 108.182 209.627 108.263 209.636C108.343 209.645 108.42 209.672 108.489 209.713C108.558 209.755 108.617 209.811 108.663 209.877C109.246 210.715 109.585 211.698 109.642 212.717C109.699 213.736 109.472 214.751 108.987 215.649C108.502 216.547 107.778 217.293 106.894 217.804C106.01 218.315 105.002 218.57 103.982 218.542V218.503Z" fill="#E6E6E6"/>
<path d="M249 425.302C355.654 425.302 442.114 420.254 442.114 414.027C442.114 407.8 355.654 402.752 249 402.752C142.346 402.752 55.8853 407.8 55.8853 414.027C55.8853 420.254 142.346 425.302 249 425.302Z" fill="#F5F5F5"/>
<path d="M361.997 145.246H329.567L306.659 407.443H339.089C343.64 407.355 348.002 405.605 351.352 402.523C354.703 399.441 356.809 395.239 357.276 390.711L377.285 161.969C377.518 159.838 377.293 157.682 376.627 155.644C375.961 153.606 374.868 151.734 373.421 150.151C371.975 148.569 370.208 147.313 368.238 146.468C366.268 145.622 364.14 145.205 361.997 145.246Z" fill="#1169B0"/>
<path d="M355.383 145.247H245.624C241.072 145.332 236.708 147.08 233.356 150.16C230.004 153.241 227.895 157.441 227.427 161.97L207.417 390.711C207.187 392.841 207.412 394.995 208.077 397.031C208.743 399.067 209.834 400.938 211.278 402.521C212.721 404.103 214.485 405.36 216.452 406.209C218.419 407.058 220.544 407.479 222.686 407.444H332.435C336.981 407.346 341.334 405.592 344.678 402.511C348.021 399.43 350.124 395.234 350.592 390.711L370.602 161.97C370.833 159.844 370.611 157.694 369.949 155.661C369.286 153.628 368.2 151.759 366.761 150.178C365.322 148.597 363.563 147.34 361.602 146.49C359.64 145.639 357.52 145.216 355.383 145.247Z" fill="#1169B0"/>
<path opacity="0.3" d="M355.383 145.247H245.624C241.072 145.332 236.708 147.08 233.356 150.16C230.004 153.241 227.895 157.441 227.427 161.97L207.417 390.711C207.187 392.841 207.412 394.995 208.077 397.031C208.743 399.067 209.834 400.938 211.278 402.521C212.721 404.103 214.485 405.36 216.452 406.209C218.419 407.058 220.544 407.479 222.686 407.444H332.435C336.981 407.346 341.334 405.592 344.678 402.511C348.021 399.43 350.124 395.234 350.592 390.711L370.602 161.97C370.833 159.844 370.611 157.694 369.949 155.661C369.286 153.628 368.2 151.759 366.761 150.178C365.322 148.597 363.563 147.34 361.602 146.49C359.64 145.639 357.52 145.216 355.383 145.247Z" fill="white"/>
<path opacity="0.4" d="M354.915 150.605H325.971C325.108 150.612 324.267 150.878 323.557 151.368C322.847 151.858 322.3 152.55 321.987 153.354C320.846 156.308 318.85 158.855 316.255 160.67C313.659 162.485 310.582 163.485 307.416 163.543H290.344C287.362 163.603 284.453 162.622 282.116 160.767C279.78 158.913 278.164 156.302 277.546 153.384C277.381 152.595 276.945 151.888 276.314 151.386C275.683 150.884 274.896 150.618 274.09 150.635H245.156C242.062 150.69 239.096 151.876 236.818 153.971C234.54 156.065 233.109 158.921 232.795 161.999L212.776 390.741C212.616 392.189 212.766 393.655 213.217 395.041C213.668 396.426 214.409 397.7 215.392 398.776C216.374 399.852 217.574 400.707 218.913 401.283C220.251 401.859 221.697 402.142 223.154 402.115H332.913C336.008 402.058 338.974 400.869 341.252 398.773C343.529 396.678 344.96 393.82 345.274 390.741L365.283 161.999C365.447 160.55 365.299 159.083 364.85 157.696C364.401 156.309 363.661 155.033 362.679 153.955C361.698 152.876 360.498 152.019 359.159 151.442C357.82 150.864 356.373 150.579 354.915 150.605Z" fill="white"/>
<path d="M327.565 274.896H250.753C250.226 274.905 249.702 274.801 249.217 274.592C248.732 274.383 248.297 274.073 247.941 273.683C247.585 273.293 247.316 272.832 247.152 272.33C246.988 271.829 246.932 271.298 246.989 270.773L247.377 266.37C247.491 265.254 248.01 264.218 248.836 263.459C249.662 262.699 250.737 262.268 251.859 262.247H328.681C329.208 262.238 329.732 262.342 330.217 262.551C330.702 262.76 331.137 263.07 331.493 263.46C331.849 263.85 332.118 264.311 332.282 264.813C332.446 265.314 332.502 265.845 332.445 266.37L332.067 270.773C331.95 271.891 331.428 272.929 330.598 273.688C329.769 274.448 328.69 274.878 327.565 274.896Z" fill="white"/>
<path d="M325.911 293.82H249.09C248.562 293.829 248.039 293.725 247.555 293.516C247.07 293.307 246.636 292.997 246.281 292.607C245.926 292.217 245.657 291.755 245.494 291.253C245.331 290.752 245.277 290.221 245.335 289.696L245.714 285.294C245.83 284.179 246.349 283.144 247.175 282.385C248 281.626 249.074 281.194 250.196 281.171H327.017C327.545 281.162 328.069 281.266 328.554 281.475C329.038 281.684 329.473 281.994 329.829 282.384C330.185 282.773 330.454 283.235 330.619 283.736C330.783 284.238 330.838 284.769 330.782 285.294L330.393 289.696C330.277 290.812 329.758 291.846 328.932 292.606C328.107 293.365 327.033 293.797 325.911 293.82Z" fill="white"/>
<path opacity="0.1" d="M304.229 154.888C304.102 156.127 303.525 157.277 302.607 158.12C301.689 158.963 300.494 159.439 299.249 159.46C298.663 159.47 298.082 159.356 297.544 159.124C297.006 158.893 296.524 158.549 296.129 158.117C295.734 157.684 295.436 157.173 295.254 156.616C295.073 156.059 295.012 155.47 295.075 154.888C295.202 153.648 295.779 152.498 296.697 151.656C297.614 150.813 298.81 150.337 300.055 150.316C300.641 150.306 301.222 150.42 301.76 150.652C302.298 150.883 302.78 151.227 303.175 151.659C303.57 152.092 303.868 152.603 304.05 153.16C304.231 153.717 304.292 154.306 304.229 154.888Z" fill="black"/>
<path opacity="0.1" d="M302.157 154.888C302.086 155.565 301.771 156.192 301.27 156.653C300.77 157.113 300.118 157.374 299.438 157.388C299.117 157.394 298.8 157.332 298.505 157.205C298.211 157.079 297.947 156.891 297.731 156.654C297.515 156.418 297.352 156.138 297.253 155.833C297.154 155.529 297.121 155.206 297.157 154.888C297.225 154.21 297.54 153.582 298.041 153.121C298.542 152.66 299.195 152.399 299.876 152.388C300.196 152.383 300.513 152.447 300.806 152.574C301.1 152.701 301.363 152.888 301.579 153.125C301.794 153.361 301.957 153.64 302.057 153.944C302.157 154.248 302.191 154.57 302.157 154.888Z" fill="black"/>
<g opacity="0.8">
<path d="M341.399 162.517C341.227 162.52 341.057 162.486 340.899 162.417C340.741 162.349 340.6 162.248 340.484 162.121C340.368 161.994 340.281 161.843 340.227 161.68C340.174 161.517 340.156 161.344 340.174 161.173L340.393 158.723C340.43 158.361 340.598 158.025 340.866 157.779C341.134 157.533 341.484 157.394 341.847 157.388C342.018 157.386 342.188 157.42 342.345 157.487C342.502 157.555 342.643 157.655 342.759 157.781C342.874 157.907 342.962 158.056 343.016 158.219C343.07 158.381 343.089 158.553 343.073 158.723L342.853 161.173C342.817 161.536 342.649 161.873 342.381 162.121C342.113 162.368 341.764 162.51 341.399 162.517Z" fill="white"/>
<path d="M352.116 162.518C351.944 162.52 351.774 162.486 351.616 162.417C351.458 162.349 351.317 162.248 351.201 162.121C351.085 161.994 350.998 161.844 350.944 161.68C350.891 161.517 350.873 161.344 350.891 161.173L351.399 155.426C351.436 155.064 351.604 154.728 351.872 154.482C352.14 154.236 352.489 154.097 352.853 154.091C353.024 154.089 353.194 154.123 353.351 154.191C353.508 154.259 353.649 154.359 353.764 154.485C353.88 154.611 353.968 154.76 354.022 154.922C354.076 155.084 354.095 155.256 354.078 155.426L353.57 161.173C353.534 161.536 353.366 161.873 353.098 162.121C352.83 162.369 352.481 162.51 352.116 162.518Z" fill="white"/>
<path d="M346.758 162.517C346.586 162.52 346.415 162.486 346.258 162.417C346.1 162.349 345.958 162.248 345.843 162.121C345.727 161.994 345.639 161.843 345.586 161.68C345.532 161.517 345.514 161.344 345.533 161.173L345.891 157.079C345.928 156.714 346.097 156.376 346.367 156.128C346.637 155.88 346.989 155.74 347.355 155.735C347.527 155.732 347.697 155.766 347.854 155.834C348.012 155.903 348.152 156.004 348.267 156.131C348.382 156.259 348.469 156.409 348.521 156.573C348.573 156.736 348.59 156.909 348.57 157.079L348.212 161.173C348.175 161.536 348.007 161.873 347.74 162.121C347.472 162.368 347.122 162.509 346.758 162.517Z" fill="white"/>
</g>
<g opacity="0.8">
<path d="M249.638 162.517H242.905C242.808 162.519 242.712 162.501 242.623 162.462C242.534 162.424 242.454 162.367 242.389 162.295C242.323 162.224 242.275 162.139 242.245 162.046C242.215 161.954 242.206 161.857 242.218 161.76L242.526 158.145C242.548 157.94 242.644 157.749 242.796 157.61C242.949 157.471 243.147 157.392 243.353 157.388H250.086C250.183 157.386 250.279 157.404 250.368 157.443C250.457 157.481 250.537 157.538 250.602 157.61C250.667 157.681 250.716 157.766 250.746 157.859C250.775 157.951 250.785 158.049 250.773 158.145L250.454 161.76C250.437 161.966 250.344 162.157 250.193 162.297C250.042 162.437 249.844 162.516 249.638 162.517Z" fill="white"/>
<path d="M252.756 161.531C252.658 161.533 252.562 161.514 252.472 161.476C252.383 161.438 252.302 161.381 252.237 161.31C252.171 161.238 252.121 161.153 252.09 161.061C252.059 160.969 252.048 160.871 252.058 160.774L252.208 159.121C252.227 158.915 252.323 158.723 252.476 158.584C252.628 158.444 252.827 158.365 253.034 158.364C253.131 158.362 253.228 158.381 253.317 158.419C253.406 158.457 253.485 158.514 253.551 158.586C253.616 158.658 253.665 158.742 253.694 158.835C253.724 158.927 253.733 159.025 253.722 159.121L253.582 160.774C253.56 160.98 253.464 161.17 253.312 161.309C253.16 161.449 252.962 161.528 252.756 161.531Z" fill="white"/>
</g>
<path d="M314.908 245.943C328.311 233.113 329.648 212.758 317.894 200.48C306.14 188.202 285.746 188.649 272.344 201.479C258.941 214.31 257.604 234.664 269.358 246.943C281.112 259.221 301.505 258.773 314.908 245.943Z" fill="white"/>
<path d="M293.741 222.487C285.294 222.487 278.153 225.704 277.546 232.686L276.868 240.444H307.475L308.153 232.686C308.76 225.704 302.197 222.487 293.741 222.487Z" fill="#1169B0"/>
<path d="M294.02 219.289C297.944 219.289 299.757 216.112 300.095 212.188C300.434 208.264 299.189 205.086 295.265 205.086C291.34 205.086 289.538 208.274 289.189 212.188C288.84 216.102 290.095 219.289 294.02 219.289Z" fill="#1169B0"/>
<path d="M324.059 268.302C321.977 268.302 320.214 269.099 320.075 270.822L319.906 272.745H327.465L327.635 270.822C327.774 269.099 326.151 268.302 324.059 268.302Z" fill="#1169B0"/>
<path d="M324.129 267.516C325.125 267.516 325.543 266.729 325.633 265.763C325.722 264.797 325.404 264.01 324.438 264.01C323.471 264.01 323.023 264.797 322.934 265.763C322.844 266.729 323.163 267.516 324.129 267.516Z" fill="#1169B0"/>
<path d="M300.792 312.744H270.912C270.102 312.759 269.298 312.601 268.554 312.28C267.809 311.96 267.142 311.485 266.595 310.887C266.049 310.288 265.636 309.581 265.384 308.81C265.132 308.04 265.048 307.225 265.135 306.419C265.313 304.707 266.11 303.118 267.378 301.953C268.646 300.788 270.296 300.127 272.018 300.095H301.898C302.708 300.082 303.511 300.241 304.254 300.562C304.998 300.882 305.665 301.357 306.211 301.955C306.757 302.553 307.17 303.261 307.423 304.03C307.675 304.8 307.761 305.614 307.675 306.419C307.499 308.133 306.702 309.723 305.434 310.888C304.166 312.054 302.514 312.714 300.792 312.744Z" fill="#1169B0"/>
<path d="M297.177 383.281H265.195C264.337 383.304 263.484 383.142 262.694 382.806C261.905 382.47 261.196 381.968 260.618 381.334C260.04 380.7 259.605 379.949 259.343 379.131C259.081 378.314 258.998 377.45 259.1 376.598L261.141 353.271C261.324 351.462 262.164 349.782 263.502 348.55C264.84 347.318 266.584 346.62 268.402 346.588H300.394C301.249 346.573 302.098 346.74 302.884 347.079C303.67 347.418 304.375 347.92 304.952 348.552C305.528 349.185 305.964 349.932 306.229 350.746C306.494 351.56 306.583 352.421 306.489 353.271L304.448 376.598C304.261 378.407 303.418 380.086 302.079 381.317C300.739 382.548 298.996 383.247 297.177 383.281Z" fill="#1169B0"/>
<g opacity="0.6">
<path d="M287.316 359.158C287.369 358.649 287.312 358.134 287.151 357.649C286.99 357.163 286.727 356.717 286.381 356.341C286.034 355.964 285.612 355.665 285.141 355.464C284.671 355.263 284.163 355.164 283.651 355.174C282.562 355.189 281.515 355.603 280.71 356.337C279.904 357.071 279.395 358.074 279.279 359.158C279.215 359.764 279.305 360.376 279.54 360.938C279.775 361.5 280.148 361.994 280.623 362.375L279.926 370.413C279.892 370.717 279.923 371.025 280.018 371.317C280.113 371.608 280.268 371.876 280.475 372.102C280.681 372.328 280.934 372.508 281.215 372.629C281.497 372.75 281.801 372.809 282.107 372.803C282.756 372.789 283.378 372.539 283.855 372.098C284.332 371.658 284.631 371.058 284.697 370.413L285.404 362.375C285.938 362.01 286.385 361.533 286.716 360.977C287.046 360.422 287.251 359.801 287.316 359.158Z" fill="white"/>
</g>
<path d="M300.673 351.448H296.549L297.545 339.905C297.719 338.303 297.551 336.682 297.05 335.15C296.55 333.618 295.729 332.21 294.643 331.02C293.557 329.829 292.23 328.883 290.751 328.244C289.271 327.606 287.673 327.289 286.061 327.315C282.637 327.382 279.355 328.699 276.835 331.018C274.314 333.337 272.728 336.498 272.376 339.905L271.38 351.448H267.257L268.253 339.905C268.717 335.383 270.82 331.188 274.165 328.111C277.51 325.034 281.866 323.288 286.41 323.202C288.549 323.165 290.671 323.584 292.635 324.431C294.6 325.278 296.362 326.532 297.804 328.112C299.246 329.692 300.336 331.56 301 333.594C301.665 335.627 301.889 337.778 301.659 339.905L300.673 351.448Z" fill="#1169B0"/>
<path d="M324.567 285.982L324.696 284.856C324.723 284.595 324.694 284.332 324.612 284.083C324.53 283.834 324.396 283.605 324.219 283.411C324.043 283.217 323.827 283.063 323.586 282.959C323.346 282.854 323.086 282.802 322.824 282.804C322.266 282.816 321.731 283.031 321.321 283.408C320.91 283.786 320.651 284.301 320.593 284.856L320.493 285.962C320.27 285.968 320.057 286.055 319.894 286.207C319.731 286.36 319.629 286.566 319.607 286.788L319.348 289.776C319.335 289.881 319.345 289.987 319.377 290.087C319.409 290.187 319.462 290.279 319.533 290.357C319.604 290.435 319.691 290.496 319.788 290.537C319.885 290.578 319.99 290.597 320.095 290.593H324.198C324.421 290.589 324.634 290.504 324.797 290.353C324.961 290.203 325.063 289.997 325.085 289.776L325.344 286.788C325.352 286.683 325.338 286.577 325.303 286.477C325.267 286.377 325.211 286.286 325.137 286.21C325.064 286.133 324.975 286.074 324.877 286.034C324.778 285.995 324.673 285.977 324.567 285.982ZM322.704 283.332C322.902 283.33 323.098 283.369 323.279 283.448C323.461 283.526 323.623 283.642 323.757 283.788C323.89 283.933 323.992 284.106 324.054 284.293C324.116 284.481 324.138 284.679 324.119 284.876L324.019 285.982H320.932L321.031 284.876C321.075 284.459 321.269 284.073 321.577 283.788C321.885 283.504 322.286 283.342 322.704 283.332Z" fill="#1169B0"/>
<path d="M262.795 287.166L261.361 286.868C261.321 286.86 261.283 286.842 261.251 286.818C261.219 286.793 261.192 286.761 261.174 286.724C261.156 286.688 261.146 286.648 261.146 286.607C261.145 286.566 261.154 286.526 261.172 286.489L261.769 285.075C261.794 285.014 261.797 284.946 261.776 284.883C261.756 284.82 261.714 284.767 261.657 284.732C261.601 284.698 261.535 284.684 261.469 284.694C261.404 284.704 261.345 284.736 261.301 284.786L260.216 285.902C260.189 285.935 260.156 285.962 260.118 285.98C260.08 285.998 260.039 286.008 259.996 286.008C259.954 286.008 259.913 285.998 259.875 285.98C259.837 285.962 259.803 285.935 259.777 285.902L258.891 284.786C258.702 284.547 258.293 284.786 258.363 285.075L258.712 286.489C258.722 286.531 258.723 286.573 258.716 286.615C258.709 286.657 258.693 286.697 258.67 286.733C258.646 286.768 258.616 286.799 258.58 286.822C258.545 286.845 258.505 286.861 258.463 286.868L256.979 287.166C256.66 287.226 256.62 287.674 256.929 287.734L258.363 288.033C258.403 288.041 258.441 288.058 258.473 288.082C258.505 288.107 258.531 288.14 258.549 288.177C258.566 288.213 258.575 288.254 258.574 288.295C258.573 288.336 258.562 288.376 258.542 288.411L257.965 289.836C257.94 289.897 257.937 289.965 257.958 290.027C257.978 290.09 258.02 290.144 258.076 290.178C258.133 290.213 258.199 290.226 258.264 290.217C258.33 290.207 258.389 290.174 258.433 290.125L259.518 289.009C259.546 288.979 259.58 288.955 259.618 288.938C259.656 288.922 259.696 288.913 259.737 288.913C259.779 288.913 259.819 288.922 259.857 288.938C259.895 288.955 259.929 288.979 259.957 289.009L260.843 290.125C261.032 290.364 261.441 290.125 261.361 289.836L261.012 288.421C260.998 288.337 261.016 288.25 261.065 288.18C261.113 288.109 261.187 288.06 261.271 288.043L262.755 287.744C263.064 287.674 263.104 287.226 262.795 287.166Z" fill="#263238"/>
<path d="M272.217 287.166L270.783 286.868C270.743 286.86 270.705 286.842 270.673 286.818C270.64 286.793 270.614 286.761 270.596 286.724C270.578 286.688 270.568 286.648 270.568 286.607C270.567 286.566 270.576 286.526 270.593 286.489L271.191 285.075C271.216 285.014 271.218 284.946 271.198 284.883C271.177 284.82 271.135 284.767 271.079 284.732C271.023 284.698 270.956 284.684 270.891 284.694C270.826 284.704 270.766 284.736 270.723 284.786L269.637 285.902C269.611 285.935 269.578 285.962 269.54 285.98C269.502 285.998 269.46 286.008 269.418 286.008C269.376 286.008 269.334 285.998 269.296 285.98C269.258 285.962 269.225 285.935 269.199 285.902L268.313 284.786C268.123 284.547 267.715 284.786 267.795 285.075L268.143 286.489C268.152 286.531 268.152 286.574 268.144 286.616C268.135 286.658 268.118 286.698 268.094 286.733C268.07 286.769 268.039 286.799 268.003 286.822C267.967 286.845 267.926 286.861 267.884 286.868L266.4 287.166C266.082 287.226 266.042 287.674 266.35 287.734L267.785 288.033C267.825 288.041 267.862 288.058 267.895 288.083C267.927 288.108 267.953 288.14 267.971 288.176C267.99 288.213 267.999 288.253 268 288.294C268 288.334 267.991 288.375 267.974 288.411L267.376 289.826C267.351 289.887 267.349 289.955 267.37 290.018C267.39 290.08 267.432 290.134 267.488 290.168C267.544 290.203 267.611 290.216 267.676 290.207C267.741 290.197 267.801 290.164 267.844 290.115L268.93 288.999C268.958 288.969 268.992 288.945 269.03 288.928C269.067 288.912 269.108 288.903 269.149 288.903C269.19 288.903 269.231 288.912 269.269 288.928C269.306 288.945 269.34 288.969 269.368 288.999L270.255 290.115C270.444 290.354 270.852 290.115 270.783 289.826L270.434 288.411C270.425 288.37 270.425 288.328 270.433 288.286C270.44 288.245 270.456 288.205 270.48 288.17C270.503 288.135 270.533 288.105 270.568 288.081C270.602 288.058 270.642 288.041 270.683 288.033L272.167 287.734C272.486 287.674 272.526 287.226 272.217 287.166Z" fill="#263238"/>
<path d="M281.639 287.167L280.215 286.868C280.174 286.862 280.135 286.846 280.101 286.821C280.068 286.797 280.041 286.765 280.022 286.728C280.004 286.691 279.994 286.65 279.995 286.608C279.995 286.567 280.006 286.526 280.026 286.489L280.623 285.075C280.662 285.012 280.673 284.936 280.655 284.864C280.638 284.792 280.592 284.73 280.529 284.692C280.465 284.653 280.389 284.642 280.317 284.66C280.245 284.677 280.183 284.723 280.145 284.786L279.07 285.902C279.042 285.935 279.008 285.962 278.969 285.98C278.931 285.999 278.888 286.008 278.845 286.008C278.802 286.008 278.76 285.999 278.721 285.98C278.683 285.962 278.648 285.935 278.621 285.902L277.735 284.786C277.546 284.547 277.137 284.786 277.217 285.075L277.566 286.489C277.574 286.531 277.575 286.573 277.567 286.615C277.559 286.656 277.543 286.695 277.52 286.731C277.497 286.766 277.467 286.796 277.432 286.82C277.397 286.843 277.358 286.86 277.317 286.868L275.833 287.167C275.514 287.226 275.474 287.675 275.783 287.734L277.207 288.033C277.247 288.041 277.284 288.058 277.317 288.083C277.349 288.108 277.375 288.14 277.394 288.176C277.412 288.213 277.422 288.253 277.422 288.294C277.422 288.335 277.414 288.375 277.396 288.412L276.799 289.826C276.76 289.889 276.749 289.965 276.767 290.037C276.784 290.109 276.83 290.171 276.893 290.209C276.957 290.248 277.033 290.259 277.105 290.242C277.176 290.224 277.238 290.178 277.277 290.115L278.352 288.999C278.38 288.969 278.414 288.945 278.452 288.929C278.49 288.912 278.53 288.904 278.572 288.904C278.613 288.904 278.653 288.912 278.691 288.929C278.729 288.945 278.763 288.969 278.791 288.999L279.687 290.115C279.876 290.354 280.285 290.115 280.205 289.826L279.856 288.412C279.841 288.329 279.859 288.243 279.905 288.173C279.952 288.102 280.023 288.052 280.105 288.033L281.589 287.734C281.868 287.675 281.948 287.226 281.639 287.167Z" fill="#263238"/>
<path d="M291.071 287.166L289.637 286.868C289.597 286.86 289.56 286.842 289.527 286.818C289.495 286.793 289.469 286.761 289.45 286.724C289.432 286.688 289.422 286.648 289.422 286.607C289.421 286.566 289.43 286.526 289.448 286.489L290.045 285.075C290.07 285.014 290.073 284.946 290.052 284.883C290.032 284.82 289.99 284.767 289.933 284.732C289.877 284.698 289.811 284.684 289.746 284.694C289.68 284.704 289.621 284.736 289.577 284.786L288.492 285.902C288.465 285.935 288.432 285.962 288.394 285.98C288.356 285.998 288.315 286.008 288.272 286.008C288.23 286.008 288.189 285.998 288.151 285.98C288.113 285.962 288.079 285.935 288.053 285.902L287.167 284.786C286.978 284.547 286.569 284.786 286.639 285.075L286.988 286.489C286.998 286.531 286.999 286.573 286.992 286.615C286.985 286.657 286.969 286.697 286.946 286.733C286.922 286.768 286.892 286.799 286.856 286.822C286.821 286.845 286.781 286.861 286.739 286.868L285.255 287.166C284.936 287.226 284.896 287.674 285.255 287.734L286.689 288.033C286.729 288.041 286.767 288.058 286.799 288.082C286.831 288.107 286.857 288.14 286.875 288.177C286.892 288.213 286.901 288.254 286.9 288.295C286.898 288.336 286.888 288.376 286.868 288.411L286.28 289.826C286.256 289.887 286.253 289.955 286.274 290.018C286.294 290.08 286.336 290.134 286.392 290.168C286.448 290.203 286.515 290.216 286.58 290.207C286.646 290.197 286.705 290.164 286.749 290.115L287.834 288.999C287.862 288.969 287.896 288.945 287.934 288.928C287.972 288.912 288.012 288.903 288.053 288.903C288.094 288.903 288.135 288.912 288.173 288.928C288.211 288.945 288.245 288.969 288.272 288.999L289.159 290.115C289.348 290.354 289.757 290.115 289.677 289.826L289.328 288.411C289.314 288.327 289.332 288.24 289.381 288.17C289.429 288.099 289.503 288.05 289.587 288.033L291.071 287.734C291.34 287.674 291.38 287.226 291.071 287.166Z" fill="#263238"/>
<path d="M300.494 287.166L299.059 286.868C299.019 286.86 298.982 286.842 298.95 286.818C298.917 286.793 298.891 286.761 298.873 286.724C298.854 286.688 298.845 286.648 298.844 286.607C298.844 286.566 298.853 286.526 298.87 286.489L299.468 285.075C299.493 285.014 299.495 284.946 299.475 284.883C299.454 284.82 299.412 284.767 299.356 284.732C299.3 284.698 299.233 284.684 299.168 284.694C299.103 284.704 299.043 284.736 299 284.786L297.914 285.902C297.888 285.935 297.855 285.962 297.817 285.98C297.779 285.998 297.737 286.008 297.695 286.008C297.653 286.008 297.611 285.998 297.573 285.98C297.535 285.962 297.502 285.935 297.476 285.902L296.589 284.786C296.4 284.547 295.992 284.786 296.071 285.075L296.42 286.489C296.429 286.531 296.429 286.574 296.42 286.616C296.412 286.658 296.395 286.698 296.371 286.733C296.347 286.769 296.316 286.799 296.28 286.822C296.244 286.845 296.203 286.861 296.161 286.868L294.677 287.166C294.358 287.226 294.318 287.674 294.627 287.734L296.061 288.033C296.101 288.041 296.139 288.058 296.171 288.083C296.204 288.108 296.23 288.14 296.248 288.176C296.266 288.213 296.276 288.253 296.276 288.294C296.277 288.334 296.268 288.375 296.251 288.411L295.653 289.826C295.628 289.887 295.626 289.955 295.646 290.018C295.667 290.08 295.709 290.134 295.765 290.168C295.821 290.203 295.888 290.216 295.953 290.207C296.018 290.197 296.078 290.164 296.121 290.115L297.207 288.999C297.235 288.969 297.269 288.945 297.306 288.928C297.344 288.912 297.385 288.903 297.426 288.903C297.467 288.903 297.508 288.912 297.545 288.928C297.583 288.945 297.617 288.969 297.645 288.999L298.532 290.115C298.721 290.354 299.129 290.115 299.059 289.826L298.711 288.411C298.702 288.37 298.702 288.328 298.709 288.286C298.717 288.245 298.733 288.205 298.756 288.17C298.779 288.135 298.809 288.105 298.844 288.081C298.879 288.058 298.918 288.041 298.96 288.033L300.444 287.734C300.792 287.674 300.792 287.226 300.494 287.166Z" fill="#263238"/>
<path d="M309.916 287.167L308.481 286.868C308.441 286.86 308.404 286.843 308.371 286.818C308.339 286.793 308.313 286.761 308.295 286.724C308.278 286.687 308.269 286.647 308.271 286.606C308.272 286.565 308.283 286.525 308.302 286.489L308.9 285.075C308.919 285.044 308.931 285.009 308.937 284.973C308.942 284.936 308.941 284.899 308.932 284.864C308.923 284.828 308.907 284.795 308.886 284.765C308.864 284.736 308.837 284.711 308.805 284.692C308.774 284.673 308.739 284.66 308.703 284.655C308.666 284.649 308.629 284.651 308.594 284.659C308.558 284.668 308.525 284.684 308.495 284.706C308.466 284.727 308.441 284.755 308.422 284.786L307.346 285.902C307.319 285.935 307.285 285.962 307.246 285.98C307.207 285.999 307.165 286.008 307.122 286.008C307.079 286.008 307.037 285.999 306.998 285.98C306.959 285.962 306.925 285.935 306.898 285.902L306.011 284.786C305.822 284.547 305.414 284.786 305.493 285.075L305.842 286.489C305.851 286.531 305.851 286.573 305.843 286.615C305.836 286.656 305.82 286.695 305.796 286.731C305.773 286.766 305.743 286.796 305.708 286.82C305.674 286.843 305.634 286.86 305.593 286.868L304.109 287.167C303.79 287.226 303.75 287.675 304.059 287.734L305.483 288.033C305.523 288.041 305.561 288.058 305.593 288.083C305.626 288.108 305.652 288.14 305.67 288.176C305.688 288.213 305.698 288.253 305.699 288.294C305.699 288.334 305.69 288.375 305.673 288.412L305.075 289.826C305.037 289.889 305.025 289.965 305.043 290.037C305.061 290.109 305.106 290.171 305.17 290.209C305.233 290.248 305.309 290.259 305.381 290.242C305.453 290.224 305.515 290.178 305.553 290.115L306.629 288.999C306.657 288.969 306.691 288.945 306.728 288.929C306.766 288.912 306.807 288.904 306.848 288.904C306.889 288.904 306.93 288.912 306.968 288.929C307.005 288.945 307.039 288.969 307.067 288.999L307.954 290.115C308 290.167 308.063 290.202 308.132 290.214C308.2 290.226 308.271 290.214 308.332 290.18C308.394 290.147 308.442 290.094 308.469 290.029C308.496 289.965 308.5 289.893 308.481 289.826L308.133 288.412C308.118 288.329 308.135 288.243 308.182 288.173C308.228 288.102 308.3 288.052 308.382 288.033L309.866 287.734C310.185 287.675 310.224 287.226 309.916 287.167Z" fill="#263238"/>
<path d="M287.197 266.54H269.508C268.965 266.549 268.444 266.757 268.044 267.124C267.644 267.491 267.393 267.992 267.337 268.532C267.308 268.786 267.334 269.043 267.413 269.286C267.493 269.529 267.623 269.753 267.796 269.941C267.968 270.13 268.179 270.28 268.414 270.38C268.65 270.481 268.904 270.529 269.159 270.524H286.848C287.391 270.514 287.912 270.307 288.312 269.939C288.712 269.572 288.964 269.072 289.02 268.532C289.046 268.278 289.019 268.021 288.939 267.779C288.859 267.536 288.729 267.313 288.557 267.125C288.384 266.937 288.174 266.787 287.94 266.686C287.705 266.585 287.452 266.535 287.197 266.54Z" fill="#263238"/>
<path d="M305.165 266.54H294.896C294.354 266.549 293.835 266.757 293.436 267.124C293.038 267.492 292.788 267.992 292.735 268.532C292.706 268.785 292.732 269.041 292.811 269.284C292.889 269.526 293.019 269.749 293.19 269.938C293.362 270.126 293.572 270.276 293.806 270.377C294.04 270.478 294.292 270.528 294.547 270.524H304.776C305.318 270.514 305.837 270.306 306.236 269.939C306.634 269.571 306.884 269.071 306.938 268.532C306.965 268.282 306.94 268.029 306.864 267.789C306.788 267.549 306.662 267.328 306.495 267.14C306.328 266.953 306.123 266.802 305.894 266.698C305.665 266.595 305.416 266.541 305.165 266.54Z" fill="#263238"/>
<path d="M318.721 356.827C312.468 359.209 306.824 362.951 302.197 367.783C299.387 365.602 296.037 364.225 292.506 363.799L292.038 363.729L291.838 366.08L292.097 366.18C295.971 367.606 299.246 370.302 301.39 373.829L301.729 374.387L302.097 373.789C306.222 367.204 312.043 361.851 318.95 358.291L319.179 358.172L319.308 356.618L318.721 356.827Z" fill="#263238"/>
<path opacity="0.2" d="M229.717 160.724C228.448 162.941 227.667 165.403 227.426 167.945L212.596 337.484H258.492L267.715 302.136L264.677 266.778L273.9 231.43L270.912 196.082L280.135 160.724H229.717Z" fill="black"/>
<path d="M266.878 186.122L276.101 150.764H160.037L150.824 186.122L153.852 221.47L144.639 256.818L147.667 292.176L138.454 327.525H254.508L263.731 292.176L260.693 256.818L269.916 221.47L266.878 186.122Z" fill="#1169B0"/>
<path opacity="0.7" d="M266.878 186.122L276.101 150.764H160.037L150.824 186.122L153.852 221.47L144.639 256.818L147.667 292.176L138.454 327.525H254.508L263.731 292.176L260.693 256.818L269.916 221.47L266.878 186.122Z" fill="white"/>
<path opacity="0.5" d="M266.878 186.122H150.824L160.037 150.764H276.101L266.878 186.122Z" fill="white"/>
<path opacity="0.5" d="M260.692 256.819H144.639L153.852 221.47H269.915L260.692 256.819Z" fill="white"/>
<path opacity="0.5" d="M254.507 327.525H138.444L147.666 292.177H263.73L254.507 327.525Z" fill="white"/>
<path opacity="0.2" d="M251.351 200.893C250.16 201.237 248.925 201.405 247.685 201.391C246.004 201.465 244.331 201.123 242.815 200.395C242.54 200.232 242.227 200.146 241.908 200.146C241.616 200.15 241.329 200.225 241.072 200.365H241.012C240.567 200.615 240.092 200.806 239.598 200.933C238.483 201.227 237.334 201.371 236.181 201.361C235.833 201.361 235.494 201.361 235.185 201.361C234.291 201.304 233.406 201.147 232.546 200.893C232.42 200.855 232.289 200.832 232.158 200.823C231.939 200.805 231.718 200.833 231.51 200.904C231.302 200.976 231.112 201.09 230.95 201.238C230.788 201.387 230.659 201.568 230.57 201.769C230.481 201.97 230.435 202.187 230.435 202.407V203.483H185.256C184.426 203.483 183.604 203.646 182.837 203.964C182.07 204.282 181.374 204.748 180.787 205.336C180.201 205.923 179.736 206.62 179.419 207.388C179.102 208.155 178.94 208.977 178.941 209.807V216.172C178.939 217.003 179.1 217.826 179.416 218.594C179.732 219.363 180.197 220.061 180.784 220.65C181.37 221.238 182.067 221.705 182.835 222.024C183.602 222.342 184.425 222.506 185.256 222.506H236.58H236.918C237.466 222.964 238.044 223.423 238.661 223.891C239.279 224.359 240.155 225.006 240.962 225.584C241.237 225.783 241.569 225.89 241.908 225.89C242.248 225.89 242.579 225.783 242.855 225.584C249.309 220.903 253.452 217.676 253.452 208.811V202.437C253.455 202.182 253.397 201.93 253.284 201.702C253.17 201.474 253.003 201.276 252.798 201.125C252.593 200.974 252.354 200.874 252.102 200.834C251.851 200.794 251.593 200.814 251.351 200.893Z" fill="black"/>
<path d="M235.594 199.987H184.28C180.787 199.987 177.955 202.818 177.955 206.311V212.676C177.955 216.169 180.787 219 184.28 219H235.594C239.086 219 241.918 216.169 241.918 212.676V206.311C241.918 202.818 239.086 199.987 235.594 199.987Z" fill="#1169B0"/>
<path d="M246.699 197.885C245.018 197.957 243.346 197.615 241.828 196.889C241.559 196.724 241.248 196.636 240.932 196.636C240.615 196.636 240.305 196.724 240.036 196.889C238.515 197.616 236.839 197.958 235.155 197.885C233.916 197.898 232.681 197.731 231.49 197.387C231.25 197.307 230.994 197.284 230.744 197.322C230.494 197.36 230.256 197.457 230.05 197.605C229.845 197.753 229.678 197.947 229.563 198.173C229.448 198.398 229.388 198.648 229.388 198.901V205.276C229.388 214.15 233.532 217.377 239.986 222.058C240.261 222.257 240.592 222.365 240.932 222.365C241.272 222.365 241.603 222.257 241.878 222.058C248.332 217.377 252.476 214.15 252.476 205.276V198.901C252.474 198.648 252.413 198.398 252.297 198.173C252.181 197.947 252.013 197.753 251.806 197.605C251.6 197.457 251.362 197.36 251.111 197.323C250.861 197.285 250.605 197.307 250.364 197.387C249.173 197.731 247.938 197.899 246.699 197.885Z" fill="#1169B0"/>
<path opacity="0.3" d="M246.699 197.885C245.018 197.957 243.346 197.615 241.828 196.889C241.559 196.724 241.248 196.636 240.932 196.636C240.615 196.636 240.305 196.724 240.036 196.889C238.515 197.616 236.839 197.958 235.155 197.885C233.916 197.898 232.681 197.731 231.49 197.387C231.25 197.307 230.994 197.284 230.744 197.322C230.494 197.36 230.256 197.457 230.05 197.605C229.845 197.753 229.678 197.947 229.563 198.173C229.448 198.398 229.388 198.648 229.388 198.901V205.276C229.388 214.15 233.532 217.377 239.986 222.058C240.261 222.257 240.592 222.365 240.932 222.365C241.272 222.365 241.603 222.257 241.878 222.058C248.332 217.377 252.476 214.15 252.476 205.276V198.901C252.474 198.648 252.413 198.398 252.297 198.173C252.181 197.947 252.013 197.753 251.806 197.605C251.6 197.457 251.362 197.36 251.111 197.323C250.861 197.285 250.605 197.307 250.364 197.387C249.173 197.731 247.938 197.899 246.699 197.885Z" fill="white"/>
<path opacity="0.2" d="M240.036 196.869C238.515 197.596 236.839 197.938 235.155 197.865C233.916 197.878 232.681 197.71 231.49 197.367C231.25 197.286 230.994 197.264 230.744 197.302C230.494 197.34 230.256 197.437 230.05 197.585C229.845 197.733 229.678 197.927 229.563 198.153C229.448 198.378 229.388 198.628 229.388 198.881V205.255C229.388 214.13 233.532 217.357 239.986 222.038C240.275 222.248 240.625 222.356 240.982 222.347V196.61C240.648 196.604 240.319 196.694 240.036 196.869Z" fill="white"/>
<path d="M250.185 203.542C246.302 205.063 242.844 207.5 240.105 210.644C238.195 209.236 235.956 208.341 233.601 208.044H233.293V209.568L233.462 209.628C236.081 210.573 238.338 212.315 239.916 214.608L240.165 214.967L240.374 214.578C242.664 210.323 246.151 206.832 250.404 204.538L250.553 204.469V203.473L250.185 203.542Z" fill="#263238"/>
<path d="M274.049 160.714H269.647C269.08 160.725 268.518 160.615 267.998 160.391C267.477 160.167 267.011 159.835 266.629 159.416C266.247 158.998 265.959 158.502 265.784 157.964C265.609 157.425 265.55 156.855 265.613 156.292L266.001 151.89C266.121 150.693 266.676 149.581 267.56 148.766C268.445 147.95 269.599 147.489 270.802 147.468H275.204C275.771 147.456 276.335 147.565 276.856 147.788C277.378 148.012 277.846 148.344 278.228 148.762C278.611 149.181 278.9 149.677 279.076 150.216C279.252 150.755 279.311 151.326 279.248 151.89L278.86 156.292C278.726 157.485 278.165 158.59 277.281 159.403C276.397 160.215 275.249 160.681 274.049 160.714Z" fill="#1169B0"/>
<path d="M275.882 151.88L274.925 150.824L272.515 153.035L270.503 150.824L269.358 151.88L271.38 154.091L268.979 156.302L269.935 157.348L272.336 155.137L274.358 157.348L275.493 156.302L273.471 154.091L275.882 151.88Z" fill="white"/>
<path d="M175.664 198.692C178.214 201.471 180.644 204.349 183.065 207.248C185.485 210.146 187.826 213.104 190.156 216.072C190.256 216.202 190.216 216.152 190.236 216.192C190.256 216.232 190.236 216.242 190.236 216.252C190.253 216.289 190.277 216.322 190.306 216.351C190.39 216.472 190.498 216.574 190.623 216.653C190.748 216.732 190.887 216.785 191.033 216.809C191.145 216.825 191.259 216.825 191.371 216.809C191.431 216.814 191.491 216.814 191.551 216.809H191.64C191.69 216.809 191.64 216.809 191.8 216.75L194.29 215.395C197.636 213.622 201.013 211.889 204.499 210.335L207.417 213.951C204.608 216.53 201.68 219.767 198.722 222.138L196.491 223.891C196.352 224.004 196.206 224.107 196.053 224.2C195.883 224.32 195.707 224.43 195.525 224.528C195.164 224.736 194.792 224.922 194.409 225.086C193.637 225.41 192.827 225.635 191.999 225.753C190.323 225.999 188.613 225.828 187.019 225.255C186.208 224.968 185.438 224.576 184.728 224.09C184.369 223.851 184.031 223.572 183.732 223.303C183.563 223.164 183.423 223.004 183.264 222.855L182.865 222.457C180.226 219.748 177.627 217.019 175.077 214.24C172.527 211.461 170.007 208.662 167.597 205.754L175.664 198.692Z" fill="#B55B52"/>
<path d="M203.184 212.526L205.505 205.066L211.62 208.114C211.62 208.114 210.724 213.552 206.282 214.498L203.184 212.526Z" fill="#B55B52"/>
<path d="M207.944 203.005L213.462 204.519L211.61 208.114L205.494 205.066L207.944 203.005Z" fill="#B55B52"/>
<path d="M143.513 200.724C142.856 203.891 142.039 207.028 141.192 210.156C140.346 213.283 139.42 216.381 138.453 219.478L138.095 220.644L137.916 221.221C137.892 221.305 137.858 221.385 137.816 221.461C137.702 221.781 137.639 222.117 137.627 222.457C137.606 223.18 137.807 223.893 138.204 224.498C138.4 224.764 138.617 225.014 138.852 225.245L139.679 226.152L141.312 227.974C142.378 229.209 143.453 230.444 144.469 231.739L140.993 235.723C139.559 234.906 138.185 234.02 136.81 233.144L134.768 231.789L133.772 231.102C133.434 230.863 133.155 230.703 132.607 230.255C130.658 228.594 129.313 226.336 128.782 223.831C128.515 222.554 128.451 221.243 128.593 219.947C128.593 219.628 128.693 219.269 128.742 218.951L128.852 218.353L129.061 217.158C129.619 213.961 130.217 210.773 130.884 207.606C131.551 204.439 132.268 201.282 133.115 198.164L143.513 200.724Z" fill="#B55B52"/>
<path d="M141.063 231.42L145.167 229.319L146.979 236.291C146.979 236.291 143.683 237.556 141.133 235.932L141.063 231.42Z" fill="#B55B52"/>
<path d="M150.844 227.078L151.033 233.492L146.442 236.49L144.848 229.448L150.844 227.078Z" fill="#B55B52"/>
<path d="M164.28 167.796C164.38 168.284 164.728 168.633 165.047 168.573C165.366 168.513 165.555 168.055 165.455 167.577C165.356 167.099 165.007 166.74 164.688 166.8C164.37 166.86 164.18 167.328 164.28 167.796Z" fill="#263238"/>
<path d="M164.678 168.643C165.575 170.032 166.657 171.292 167.895 172.388C167.607 172.698 167.255 172.942 166.862 173.102C166.47 173.262 166.048 173.334 165.625 173.314L164.678 168.643Z" fill="#A02724"/>
<path d="M161.92 165.425C161.862 165.425 161.806 165.408 161.758 165.376C161.711 165.344 161.673 165.3 161.65 165.247C161.627 165.194 161.619 165.136 161.628 165.08C161.637 165.023 161.662 164.97 161.701 164.927C162.012 164.575 162.403 164.301 162.841 164.127C163.279 163.954 163.752 163.887 164.22 163.931C164.259 163.939 164.296 163.953 164.329 163.975C164.362 163.996 164.39 164.024 164.412 164.056C164.434 164.089 164.45 164.125 164.458 164.163C164.466 164.202 164.467 164.241 164.459 164.28C164.453 164.318 164.44 164.355 164.419 164.388C164.399 164.42 164.372 164.449 164.341 164.471C164.309 164.493 164.273 164.509 164.236 164.517C164.198 164.526 164.159 164.526 164.121 164.519C163.749 164.483 163.375 164.537 163.028 164.676C162.682 164.814 162.373 165.034 162.129 165.316C162.076 165.378 162.001 165.417 161.92 165.425Z" fill="#263238"/>
<path d="M149.917 174.738C151.013 179.31 152.119 187.686 148.194 190.724C148.194 190.724 149.728 195.365 160.146 195.365C171.6 195.365 165.624 192.377 165.624 192.377C159.369 191.162 159.529 185.734 160.644 182.178L149.917 174.738Z" fill="#B55B52"/>
<path d="M146.97 191.571C146.292 190.306 145.535 188.852 147.089 188.393C148.802 187.895 159.788 186.969 163.025 187.905C162.029 189.668 163.712 191.889 163.712 191.889L146.97 191.571Z" fill="#263238"/>
<path d="M156.073 405.292H163.254L163.971 390.83H156.78L156.073 405.292Z" fill="#B55B52"/>
<path d="M110.466 403.3L117.747 403.689L122.169 389.436L114.888 389.047L110.466 403.3Z" fill="#B55B52"/>
<path d="M117.528 403.111L110.665 401.627C110.545 401.6 110.419 401.614 110.309 401.669C110.198 401.723 110.11 401.814 110.058 401.926L107.677 407.095C107.619 407.22 107.59 407.358 107.592 407.496C107.595 407.635 107.63 407.771 107.693 407.894C107.757 408.017 107.847 408.124 107.959 408.206C108.07 408.289 108.199 408.345 108.335 408.37C110.735 408.848 111.93 408.958 114.948 409.615C116.801 410.013 120.994 411.039 123.554 411.607C126.113 412.175 127 409.705 126.004 409.246C121.522 407.205 119.649 405.402 118.434 403.719C118.216 403.412 117.894 403.196 117.528 403.111Z" fill="#263238"/>
<path d="M162.876 404.565H156.053C155.93 404.566 155.81 404.61 155.715 404.687C155.619 404.765 155.552 404.873 155.525 404.993L154.29 410.541C154.258 410.675 154.257 410.815 154.288 410.95C154.318 411.084 154.379 411.21 154.466 411.318C154.552 411.426 154.662 411.512 154.787 411.571C154.912 411.629 155.049 411.659 155.187 411.656C157.647 411.656 161.163 411.467 164.3 411.467C167.915 411.467 171.033 411.666 175.256 411.666C177.816 411.666 178.533 409.077 177.457 408.838C172.567 407.772 168.583 407.653 164.36 405.053C163.918 404.759 163.405 404.59 162.876 404.565Z" fill="#263238"/>
<path d="M135.177 192.836C129.759 195.415 128.285 211.052 128.285 211.052L141.701 217.248C143.969 213.423 145.204 209.074 145.286 204.628C145.555 196.551 140.725 190.236 135.177 192.836Z" fill="#263238"/>
<path opacity="0.4" d="M142.428 202.477C140.007 206.242 140.236 212.058 141.073 216.969L141.671 217.247C143.936 213.422 145.172 209.074 145.256 204.628C145.256 204.15 145.256 203.632 145.256 203.204L142.428 202.477Z" fill="black"/>
<path d="M172.616 192.457C172.616 192.457 179.27 199.967 172.985 246.44H139.589C139.36 241.311 142.577 216.301 137.597 192.138C141.288 191.428 145.021 190.956 148.772 190.724C153.503 190.455 158.245 190.455 162.975 190.724C166.229 191.053 169.452 191.633 172.616 192.457Z" fill="#1169B0"/>
<path opacity="0.6" d="M172.616 192.457C172.616 192.457 179.27 199.967 172.985 246.44H139.589C139.36 241.311 142.577 216.301 137.597 192.138C141.288 191.428 145.021 190.956 148.772 190.724C153.503 190.455 158.245 190.455 162.975 190.724C166.229 191.053 169.452 191.633 172.616 192.457Z" fill="#FAFAFA"/>
<path opacity="0.2" d="M175.535 206.66L175.415 206.55L168.772 203.005C168.095 213.234 172.666 219.648 175.385 222.447C175.726 217.191 175.776 211.921 175.535 206.66Z" fill="black"/>
<path opacity="0.2" d="M163.971 390.83L163.603 398.29H156.412L156.78 390.83H163.971Z" fill="black"/>
<path opacity="0.2" d="M114.888 389.057L122.169 389.436L119.888 396.786L112.608 396.398L114.888 389.057Z" fill="black"/>
<path d="M147.607 170.097C149.211 176.073 149.848 179.668 153.583 182.158C159.141 185.903 166.053 181.6 166.272 175.256C166.461 169.549 163.812 160.714 157.388 159.509C155.969 159.229 154.503 159.316 153.128 159.764C151.753 160.212 150.516 161.004 149.535 162.066C148.554 163.128 147.862 164.424 147.524 165.83C147.187 167.236 147.215 168.705 147.607 170.097Z" fill="#B55B52"/>
<path d="M161.142 246.44C161.142 246.44 154.051 294.159 150.186 312.047C145.904 331.668 123.055 396.408 123.055 396.408L111.87 393.988C111.87 393.988 126.203 341.2 129.798 313.83C131.193 303.142 132.876 285.942 135.007 271.569C137.069 257.625 139.609 246.45 139.609 246.45L161.142 246.44Z" fill="#263238"/>
<path d="M125.735 392.673L123.643 396.717L111.074 393.988L112.129 390.213L125.735 392.673Z" fill="#1169B0"/>
<path opacity="0.6" d="M125.735 392.673L123.643 396.717L111.074 393.988L112.129 390.213L125.735 392.673Z" fill="white"/>
<path opacity="0.6" d="M156.66 263.442C148.463 265.046 149.33 295.613 150.316 311.33C152.686 300.214 156.143 278.84 158.503 263.661C157.932 263.38 157.282 263.303 156.66 263.442Z" fill="black"/>
<path d="M172.985 246.44C172.985 246.44 176.322 293.133 175.645 312.176C174.937 331.987 165.545 396.836 165.545 396.836H154.968C154.968 396.836 154.579 333.092 154.111 313.68C153.593 292.465 151.033 246.43 151.033 246.43L172.985 246.44Z" fill="#263238"/>
<path d="M167.577 392.633C167.627 392.633 166.979 397.026 166.979 397.026H154.111L153.762 393.101L167.577 392.633Z" fill="#1169B0"/>
<path opacity="0.6" d="M167.577 392.633C167.627 392.633 166.979 397.026 166.979 397.026H154.111L153.762 393.101L167.577 392.633Z" fill="white"/>
<path d="M168.722 201.192C168.722 213.721 175.385 218.881 175.385 218.881L186.252 208.303C183.68 204.005 180.751 199.93 177.497 196.122C171.212 188.921 168.722 193.144 168.722 201.192Z" fill="#263238"/>
<path opacity="0.2" d="M165.854 177.527C165.632 178.155 165.26 178.719 164.771 179.17C164.281 179.622 163.689 179.947 163.045 180.116C162.337 180.261 161.694 180.629 161.211 181.168C160.729 181.706 160.432 182.385 160.366 183.104C161.655 182.673 162.825 181.943 163.779 180.974C164.732 180.004 165.443 178.823 165.854 177.527Z" fill="black"/>
<path d="M163.045 158.195C165.276 155.376 161.84 155.207 161.84 155.207C162.736 151.85 158.712 153.653 158.712 153.653C156.302 150.326 154.937 154.38 154.937 154.38C152.437 151.561 151.949 156.163 151.949 156.163C149.439 152.587 148.165 157.746 148.165 157.746C145.854 154.031 144.439 158.862 144.439 158.862C139.669 157.159 141.93 162.119 141.93 162.119C137.866 162.228 141.133 165.386 141.133 165.386C136.252 165.386 140.555 168.184 140.555 168.184C136.681 170.724 141.551 171.411 141.551 171.411C138.394 176.391 143.822 174.519 143.822 174.519C141.621 179.419 146.491 177.258 146.491 177.258C146.182 181.979 148.902 180.694 150.216 179.818C150.465 180.814 150.943 181.81 151.82 181.889C153.523 182.118 153.812 178.901 153.812 178.901C153.812 178.901 155.386 180.136 156.71 179.469C158.035 178.802 157.537 177.119 157.537 177.119C157.824 177.334 158.174 177.45 158.533 177.45C158.892 177.45 159.241 177.334 159.529 177.119C160.097 176.68 160.097 173.513 159.379 172.397L161.969 171.401C161.969 171.401 163.891 171.133 163.035 168.593C162.518 167.133 162.473 165.548 162.905 164.061C165.834 162.687 163.423 161.073 163.423 161.073C166.82 158.892 163.045 158.195 163.045 158.195Z" fill="#263238"/>
<path d="M157.796 170.316C158.201 171.802 159.087 173.112 160.316 174.041C161.939 175.256 163.154 174.041 163.035 172.218C162.935 170.565 161.959 167.946 160.166 167.448C158.374 166.95 157.368 168.553 157.796 170.316Z" fill="#B55B52"/>
</g>
<defs>
<clipPath id="clip0_93_5484">
<rect width="498" height="498" fill="white"/>
</clipPath>
</defs>
</svg>